<mxfile host="app.diagrams.net" modified="2024-06-08T12:00:00.000Z" agent="5.0" version="24.5.0" type="device">
  <diagram id="Zs9U6Qbt-4Fo8wk2-mw1" name="Architecture">
    <mxGraphModel dx="1183" dy="746" grid="1" gridSize="10" guides="1" tooltips="1" connect="1" arrows="1" fold="1" page="1" pageScale="1" pageWidth="1100" pageHeight="850" math="0" shadow="0">
      <root>
        <mxCell id="0" />
        <mxCell id="1" parent="0" />
        <mxCell id="2" value="AWS Account" style="rounded=1;whiteSpace=wrap;html=1;align=left;verticalAlign=top;fontStyle=1;strokeColor=#97d077;fillColor=#1f3120;fontColor=#f2f2f2;container=1;collapsible=0;recursiveResize=0;" vertex="1" parent="1">
          <mxGeometry x="180" y="20" width="900" height="620" as="geometry" />
        </mxCell>
        <mxCell id="3" value="Users" style="rounded=1;whiteSpace=wrap;html=1;strokeColor=#6c8ebf;fillColor=#10233d;fontColor=#f2f2f2;fontStyle=1;" vertex="1" parent="1">
          <mxGeometry x="20" y="160" width="140" height="60" as="geometry" />
        </mxCell>
        <mxCell id="4" value="GitHub Actions" style="rounded=1;whiteSpace=wrap;html=1;strokeColor=#6c8ebf;fillColor=#10233d;fontColor=#f2f2f2;" vertex="1" parent="1">
          <mxGeometry x="20" y="280" width="140" height="60" as="geometry" />
        </mxCell>
        <mxCell id="5" value="Operations Email" style="rounded=1;whiteSpace=wrap;html=1;strokeColor=#6c8ebf;fillColor=#10233d;fontColor=#f2f2f2;" vertex="1" parent="1">
          <mxGeometry x="980" y="520" width="140" height="60" as="geometry" />
        </mxCell>
        <mxCell id="6" value="AWS Billing" style="rounded=1;whiteSpace=wrap;html=1;strokeColor=#6c8ebf;fillColor=#10233d;fontColor=#f2f2f2;" vertex="1" parent="1">
          <mxGeometry x="20" y="420" width="140" height="60" as="geometry" />
        </mxCell>
        <mxCell id="7" value="CloudFront (optional)" style="rounded=1;whiteSpace=wrap;html=1;strokeColor=#6c8ebf;fillColor=#0f2f4d;fontColor=#f2f2f2;" vertex="1" parent="2">
          <mxGeometry x="80" y="80" width="200" height="60" as="geometry" />
        </mxCell>
        <mxCell id="8" value="AWS WAF (optional)" style="rounded=1;whiteSpace=wrap;html=1;strokeColor=#6c8ebf;fillColor=#0f2f4d;fontColor=#f2f2f2;" vertex="1" parent="2">
          <mxGeometry x="320" y="80" width="200" height="60" as="geometry" />
        </mxCell>
        <mxCell id="9" value="Amazon ECR Repository" style="rounded=1;whiteSpace=wrap;html=1;strokeColor=#357abd;fillColor=#1b3b1d;fontColor=#f2f2f2;" vertex="1" parent="2">
          <mxGeometry x="80" y="220" width="200" height="60" as="geometry" />
        </mxCell>
        <mxCell id="10" value="AWS App Runner Service" style="rounded=1;whiteSpace=wrap;html=1;strokeColor=#357abd;fillColor=#133769;fontColor=#f2f2f2;fontStyle=1;" vertex="1" parent="2">
          <mxGeometry x="320" y="200" width="240" height="80" as="geometry" />
        </mxCell>
        <mxCell id="11" value="CloudWatch Dashboards &amp; Alarms" style="rounded=1;whiteSpace=wrap;html=1;strokeColor=#357abd;fillColor=#4d3201;fontColor=#f2f2f2;" vertex="1" parent="2">
          <mxGeometry x="600" y="200" width="240" height="80" as="geometry" />
        </mxCell>
        <mxCell id="12" value="SNS Alert Topic + Email Subscription" style="rounded=1;whiteSpace=wrap;html=1;strokeColor=#357abd;fillColor=#4d3201;fontColor=#f2f2f2;" vertex="1" parent="2">
          <mxGeometry x="640" y="320" width="200" height="60" as="geometry" />
        </mxCell>
        <mxCell id="13" value="Cost Management (Budgets &amp; Anomaly Detection)" style="rounded=1;whiteSpace=wrap;html=1;strokeColor=#357abd;fillColor=#54330c;fontColor=#f2f2f2;" vertex="1" parent="2">
          <mxGeometry x="600" y="420" width="240" height="80" as="geometry" />
        </mxCell>
        <mxCell id="14" value="VPC (private subnets)" style="rounded=1;whiteSpace=wrap;html=1;strokeColor=#82b366;fillColor=#1b3b1d;fontColor=#f2f2f2;container=1;collapsible=0;" vertex="1" parent="2">
          <mxGeometry x="320" y="340" width="260" height="200" as="geometry" />
        </mxCell>
        <mxCell id="15" value="Private Subnets (2 AZ default)" style="text;html=1;strokeColor=none;fillColor=none;fontColor=#f2f2f2;fontStyle=2;" vertex="1" parent="14">
          <mxGeometry x="20" y="20" width="220" height="30" as="geometry" />
        </mxCell>
        <mxCell id="16" value="Amazon RDS PostgreSQL (Multi-AZ in prod)" style="rounded=1;whiteSpace=wrap;html=1;strokeColor=#3d6e82;fillColor=#144761;fontColor=#f2f2f2;fontStyle=1;" vertex="1" parent="14">
          <mxGeometry x="30" y="70" width="200" height="80" as="geometry" />
        </mxCell>
        <mxCell id="17" value="Cost-optimized NAT (fck-nat pattern)" style="rounded=1;whiteSpace=wrap;html=1;strokeColor=#3d6e82;fillColor=#1d4a26;fontColor=#f2f2f2;" vertex="1" parent="14">
          <mxGeometry x="30" y="170" width="200" height="60" as="geometry" />
        </mxCell>
        <mxCell id="18" value="" style="edgeStyle=orthogonalEdgeStyle;rounded=1;orthogonalLoop=1;jettySize=auto;html=1;strokeColor=#6c8ebf;endArrow=classic;endFill=1;" edge="1" source="3" target="7" parent="1">
          <mxGeometry relative="1" as="geometry" />
        </mxCell>
        <mxCell id="19" value="" style="edgeStyle=orthogonalEdgeStyle;rounded=1;orthogonalLoop=1;jettySize=auto;html=1;strokeColor=#6c8ebf;endArrow=classic;endFill=1;" edge="1" source="7" target="8" parent="2">
          <mxGeometry relative="1" as="geometry" />
        </mxCell>
        <mxCell id="20" value="Ingress" style="edgeStyle=orthogonalEdgeStyle;rounded=1;orthogonalLoop=1;jettySize=auto;html=1;fontColor=#f2f2f2;strokeColor=#357abd;endArrow=classic;endFill=1;" edge="1" source="8" target="10" parent="2">
          <mxGeometry relative="1" as="geometry" />
        </mxCell>
        <mxCell id="21" value="Direct when CloudFront disabled" style="edgeStyle=orthogonalEdgeStyle;rounded=1;orthogonalLoop=1;jettySize=auto;html=1;strokeColor=#6c8ebf;dashed=1;endArrow=classic;endFill=1;fontColor=#f2f2f2;fontSize=11;" edge="1" source="3" target="8" parent="1">
          <mxGeometry relative="1" as="geometry" />
        </mxCell>
        <mxCell id="22" value="Push container images" style="edgeStyle=orthogonalEdgeStyle;rounded=1;orthogonalLoop=1;jettySize=auto;html=1;strokeColor=#6c8ebf;fontColor=#f2f2f2;endArrow=classic;endFill=1;" edge="1" source="4" target="9" parent="1">
          <mxGeometry relative="1" as="geometry" />
        </mxCell>
        <mxCell id="23" value="Image deployments" style="edgeStyle=orthogonalEdgeStyle;rounded=1;orthogonalLoop=1;jettySize=auto;html=1;strokeColor=#357abd;fontColor=#f2f2f2;endArrow=classic;endFill=1;" edge="1" source="9" target="10" parent="2">
          <mxGeometry relative="1" as="geometry" />
        </mxCell>
        <mxCell id="24" value="Metrics &amp; logs" style="edgeStyle=orthogonalEdgeStyle;rounded=1;orthogonalLoop=1;jettySize=auto;html=1;strokeColor=#357abd;fontColor=#f2f2f2;endArrow=classic;endFill=1;" edge="1" source="10" target="11" parent="2">
          <mxGeometry relative="1" as="geometry" />
        </mxCell>
        <mxCell id="25" value="Performance metrics" style="edgeStyle=orthogonalEdgeStyle;rounded=1;orthogonalLoop=1;jettySize=auto;html=1;strokeColor=#357abd;fontColor=#f2f2f2;endArrow=classic;endFill=1;" edge="1" source="16" target="11" parent="2">
          <mxGeometry relative="1" as="geometry" />
        </mxCell>
        <mxCell id="26" value="Alerts" style="edgeStyle=orthogonalEdgeStyle;rounded=1;orthogonalLoop=1;jettySize=auto;html=1;strokeColor=#357abd;fontColor=#f2f2f2;endArrow=classic;endFill=1;" edge="1" source="11" target="12" parent="2">
          <mxGeometry relative="1" as="geometry" />
        </mxCell>
        <mxCell id="27" value="Email notifications" style="edgeStyle=orthogonalEdgeStyle;rounded=1;orthogonalLoop=1;jettySize=auto;html=1;strokeColor=#357abd;fontColor=#f2f2f2;endArrow=classic;endFill=1;" edge="1" source="12" target="5" parent="1">
          <mxGeometry relative="1" as="geometry" />
        </mxCell>
        <mxCell id="28" value="Budget / anomaly emails" style="edgeStyle=orthogonalEdgeStyle;rounded=1;orthogonalLoop=1;jettySize=auto;html=1;strokeColor=#357abd;fontColor=#f2f2f2;endArrow=classic;endFill=1;" edge="1" source="13" target="5" parent="1">
          <mxGeometry relative="1" as="geometry" />
        </mxCell>
        <mxCell id="29" value="Private DB access via VPC connector" style="edgeStyle=orthogonalEdgeStyle;rounded=1;orthogonalLoop=1;jettySize=auto;html=1;strokeColor=#357abd;fontColor=#f2f2f2;endArrow=classic;endFill=1;fontSize=11;" edge="1" source="10" target="16" parent="2">
          <mxGeometry relative="1" as="geometry" />
        </mxCell>
        <mxCell id="30" value="Cost &amp; usage data" style="edgeStyle=orthogonalEdgeStyle;rounded=1;orthogonalLoop=1;jettySize=auto;html=1;strokeColor=#357abd;fontColor=#f2f2f2;endArrow=classic;endFill=1;" edge="1" source="6" target="13" parent="1">
          <mxGeometry relative="1" as="geometry" />
        </mxCell>
      </root>
    </mxGraphModel>
  </diagram>
</mxfile>
